<svg xmlns="http://www.w3.org/2000/svg" viewBox="0 0 1200 400" width="1200" height="400">
  <defs>
    <linearGradient id="bg" x1="0%" y1="0%" x2="100%" y2="100%">
      <stop offset="0%" stop-color="#0f172a"/>
      <stop offset="50%" stop-color="#1e293b"/>
      <stop offset="100%" stop-color="#0f172a"/>
    </linearGradient>
    <linearGradient id="accent" x1="0%" y1="0%" x2="100%" y2="0%">
      <stop offset="0%" stop-color="#38bdf8"/>
      <stop offset="50%" stop-color="#818cf8"/>
      <stop offset="100%" stop-color="#c084fc"/>
    </linearGradient>
    <linearGradient id="iconGrad" x1="0%" y1="0%" x2="100%" y2="100%">
      <stop offset="0%" stop-color="#38bdf8"/>
      <stop offset="100%" stop-color="#818cf8"/>
    </linearGradient>
    <pattern id="grid" width="40" height="40" patternUnits="userSpaceOnUse">
      <path d="M 40 0 L 0 0 0 40" fill="none" stroke="#334155" stroke-width="0.5" opacity="0.3"/>
    </pattern>
    <filter id="glow">
      <feGaussianBlur stdDeviation="6" result="blur"/>
      <feMerge><feMergeNode in="blur"/><feMergeNode in="SourceGraphic"/></feMerge>
    </filter>
  </defs>
  <rect width="1200" height="400" fill="url(#bg)"/>
  <rect width="1200" height="400" fill="url(#grid)"/>
  <circle cx="950" cy="80" r="180" fill="#38bdf8" opacity="0.03"/>
  <circle cx="1000" cy="120" r="120" fill="#818cf8" opacity="0.04"/>
  <circle cx="200" cy="350" r="150" fill="#c084fc" opacity="0.03"/>
  <rect x="0" y="0" width="1200" height="3" fill="url(#accent)"/>
  <!-- Keyboard key icons -->
  <g transform="translate(78, 120)" filter="url(#glow)">
    <rect x="0" y="20" width="36" height="36" rx="6" fill="#1e293b" stroke="#38bdf8" stroke-width="2"/>
    <text x="18" y="43" font-family="ui-monospace,'Cascadia Code',Menlo,monospace" font-size="13" fill="#38bdf8" text-anchor="middle">⌘</text>
    <rect x="44" y="20" width="36" height="36" rx="6" fill="#1e293b" stroke="#818cf8" stroke-width="2"/>
    <text x="62" y="43" font-family="ui-monospace,'Cascadia Code',Menlo,monospace" font-size="13" fill="#818cf8" text-anchor="middle">⇧</text>
    <rect x="88" y="20" width="36" height="36" rx="6" fill="#1e293b" stroke="#c084fc" stroke-width="2"/>
    <text x="106" y="43" font-family="ui-monospace,'Cascadia Code',Menlo,monospace" font-size="14" fill="#c084fc" text-anchor="middle">K</text>
    <rect x="22" y="72" width="80" height="36" rx="6" fill="#1e293b" stroke="url(#iconGrad)" stroke-width="2"/>
    <text x="62" y="95" font-family="ui-monospace,'Cascadia Code',Menlo,monospace" font-size="11" fill="#94a3b8" text-anchor="middle">space</text>
  </g>
  <text x="240" y="178" font-family="ui-monospace,'Cascadia Code','Fira Code',Menlo,monospace" font-size="42" font-weight="700" fill="#f1f5f9" letter-spacing="-0.5">@stackra/kbd</text>
  <text x="240" y="218" font-family="-apple-system,BlinkMacSystemFont,'Segoe UI',Roboto,sans-serif" font-size="18" fill="#94a3b8">Keyboard shortcut display utilities for HeroUI — enhanced UX docs</text>
  <g transform="translate(240, 245)">
    <rect x="0" y="0" width="96" height="32" rx="6" fill="#38bdf8" opacity="0.12"/>
    <rect x="0" y="0" width="96" height="32" rx="6" fill="none" stroke="#38bdf8" stroke-width="1" opacity="0.3"/>
    <text x="48" y="21" font-family="ui-monospace,'Cascadia Code','Fira Code',Menlo,monospace" font-size="13" fill="#38bdf8" text-anchor="middle">HeroUI</text>
    <rect x="112" y="0" width="120" height="32" rx="6" fill="#818cf8" opacity="0.12"/>
    <rect x="112" y="0" width="120" height="32" rx="6" fill="none" stroke="#818cf8" stroke-width="1" opacity="0.3"/>
    <text x="172" y="21" font-family="ui-monospace,'Cascadia Code','Fira Code',Menlo,monospace" font-size="13" fill="#818cf8" text-anchor="middle">Shortcuts</text>
    <rect x="248" y="0" width="110" height="32" rx="6" fill="#c084fc" opacity="0.12"/>
    <rect x="248" y="0" width="110" height="32" rx="6" fill="none" stroke="#c084fc" stroke-width="1" opacity="0.3"/>
    <text x="303" y="21" font-family="ui-monospace,'Cascadia Code','Fira Code',Menlo,monospace" font-size="13" fill="#c084fc" text-anchor="middle">TypeScript</text>
  </g>
  <g transform="translate(780, 130)" opacity="0.6">
    <rect x="0" y="0" width="44" height="44" rx="8" fill="#1e293b" stroke="#38bdf8" stroke-width="2"/>
    <text x="22" y="28" font-family="ui-monospace,monospace" font-size="18" fill="#38bdf8" text-anchor="middle">⌘</text>
    <rect x="56" y="0" width="44" height="44" rx="8" fill="#1e293b" stroke="#818cf8" stroke-width="2"/>
    <text x="78" y="28" font-family="ui-monospace,monospace" font-size="16" fill="#818cf8" text-anchor="middle">K</text>
    <rect x="120" y="0" width="44" height="44" rx="8" fill="#1e293b" stroke="#c084fc" stroke-width="2"/>
    <text x="142" y="28" font-family="ui-monospace,monospace" font-size="14" fill="#c084fc" text-anchor="middle">⌥</text>
    <rect x="176" y="0" width="44" height="44" rx="8" fill="#1e293b" stroke="#34d399" stroke-width="2"/>
    <text x="198" y="28" font-family="ui-monospace,monospace" font-size="14" fill="#34d399" text-anchor="middle">⇧</text>
    <rect x="0" y="60" width="220" height="44" rx="8" fill="#1e293b" stroke="url(#iconGrad)" stroke-width="1.5"/>
    <text x="110" y="88" font-family="ui-monospace,monospace" font-size="13" fill="#64748b" text-anchor="middle">space</text>
  </g>
  <rect x="0" y="397" width="1200" height="3" fill="url(#accent)"/>
  <g transform="translate(1080, 360)">
    <rect x="0" y="0" width="80" height="24" rx="4" fill="#38bdf8" opacity="0.1"/>
    <text x="40" y="16" font-family="ui-monospace,'Cascadia Code','Fira Code',Menlo,monospace" font-size="12" fill="#38bdf8" text-anchor="middle">v1.0.0</text>
  </g>
</svg>
